<svg
  t="1617982966331"
  class="icon"
  viewBox="0 0 1024 1024"
  version="1.1"
  xmlns="http://www.w3.org/2000/svg"
  p-id="1685"
  width="200"
  height="200"
>
  <path
    d="M515.2 20.48c-273.92 0-497.28 222.72-497.28 497.28s222.72 497.28 497.28 497.28 497.28-222.72 497.28-497.28S789.12 20.48 515.2 20.48zM515.2 983.04c-256.64 0-465.28-208.64-465.28-465.28s208.64-465.28 465.28-465.28 465.28 208.64 465.28 465.28S771.84 983.04 515.2 983.04zM723.2 734.72 723.2 734.72l-0.64 0c0 0 0 0 0 0s0 0 0 0L505.6 734.72c-33.28 0-60.8-26.88-60.8-60.8l0-172.8 264.32-83.2c7.68-2.56 12.16-10.88 10.24-19.2l-0.64-1.28c-2.56-7.68-10.88-12.16-19.2-10.24L444.8 468.48l0-195.2 0 0c-1.28-7.68-7.68-12.8-15.36-12.8-7.68 0-14.08 5.76-15.36 12.8l-0.64 0L413.44 478.08l-149.12 47.36c-7.68 2.56-12.16 10.88-10.24 19.2l0.64 1.28c2.56 7.68 10.88 12.16 19.2 10.24L412.8 512l0 162.56c0 51.2 41.6 92.8 92.8 92.8l216.96 0c0 0 0 0 0 0s0 0 0 0l1.28 0 0 0c8.32-0.64 14.72-7.68 14.72-16C738.56 742.4 731.52 735.36 723.2 734.72z"
    p-id="1686"
  >
  </path>
</svg>